<?xml version="1.0" encoding="UTF-8" standalone="no"?>
<!-- Created with Inkscape (http://www.inkscape.org/) -->

<svg
   xmlns:dc="http://purl.org/dc/elements/1.1/"
   xmlns:cc="http://creativecommons.org/ns#"
   xmlns:rdf="http://www.w3.org/1999/02/22-rdf-syntax-ns#"
   xmlns:svg="http://www.w3.org/2000/svg"
   xmlns="http://www.w3.org/2000/svg"
   xmlns:sodipodi="http://sodipodi.sourceforge.net/DTD/sodipodi-0.dtd"
   xmlns:inkscape="http://www.inkscape.org/namespaces/inkscape"
   width="12mm"
   height="12.000055mm"
   viewBox="0 0 12 12.000056"
   version="1.1"
   id="svg4737"
   inkscape:version="0.91 r13725"
   sodipodi:docname="PS.svg">
  <defs
     id="defs4731" />
  <sodipodi:namedview
     id="base"
     pagecolor="#ffffff"
     bordercolor="#666666"
     borderopacity="1.0"
     inkscape:pageopacity="0.0"
     inkscape:pageshadow="2"
     inkscape:zoom="7.919596"
     inkscape:cx="-3.0034124"
     inkscape:cy="18.096055"
     inkscape:document-units="mm"
     inkscape:current-layer="layer1"
     showgrid="false"
     inkscape:window-width="1368"
     inkscape:window-height="849"
     inkscape:window-x="-8"
     inkscape:window-y="-8"
     inkscape:window-maximized="1" />
  <metadata
     id="metadata4734">
    <rdf:RDF>
      <cc:Work
         rdf:about="">
        <dc:format>image/svg+xml</dc:format>
        <dc:type
           rdf:resource="http://purl.org/dc/dcmitype/StillImage" />
        <dc:title />
      </cc:Work>
    </rdf:RDF>
  </metadata>
  <g
     inkscape:label="Livello 1"
     inkscape:groupmode="layer"
     id="layer1"
     transform="translate(-74.155397,-112.54177)">
    <g
       id="g4135"
       style="fill:#8000ff;fill-opacity:1">
      <g
         id="g4139"
         style="fill:#8000ff;fill-opacity:1">
        <g
           id="g4144"
           style="fill:#8000ff;fill-opacity:1">
          <path
             style="fill:#8000ff;fill-opacity:1;stroke:#000000;stroke-width:0.61854231;stroke-miterlimit:4;stroke-dasharray:none;stroke-opacity:1"
             d="M 28.347656 0.3125 C 27.66615 0.31556053 26.899434 0.55767794 26.056641 1.0351562 C 24.331812 2.0123648 22.721615 3.6892346 20.039062 7.3027344 C 16.394722 12.211809 16.585492 12.102236 9.3496094 13.371094 C 3.6252161 14.374948 1.0725716 15.300497 0.4765625 16.585938 C -0.11963435 17.871768 0.74309855 19.083487 5.1796875 23.181641 C 8.3083178 26.071597 9.2465764 27.098502 9.5292969 27.947266 C 9.7275307 28.542435 10.004965 31.05807 10.146484 33.537109 C 10.434059 38.574062 10.889828 40.396472 12.142578 41.515625 L 12.142578 41.517578 C 13.038688 42.318082 14.019224 42.435604 15.210938 41.882812 C 16.474513 41.29682 19.547233 38.24346 22.160156 34.978516 C 24.800264 31.679591 26.328861 30.274325 27.921875 29.679688 C 28.475513 29.473042 30.77206 28.951181 33.025391 28.521484 C 38.227387 27.529536 39.684318 27.140662 40.884766 26.417969 C 43.257594 24.989414 42.659074 23.723987 37.429688 19.119141 C 35.287418 17.23272 33.308731 15.289797 33.033203 14.802734 C 32.651245 14.127522 32.480019 12.921518 32.308594 9.7226562 C 32.011232 4.1738732 31.555509 2.3535465 30.128906 1.0175781 C 29.626019 0.54557422 29.029163 0.30943947 28.347656 0.3125 z M 23.660156 14.164062 C 23.891052 14.162911 24.093294 14.243072 24.263672 14.402344 C 24.747004 14.85493 24.901206 15.47159 25.001953 17.351562 C 25.060063 18.435318 25.118645 18.84351 25.248047 19.072266 C 25.341378 19.237384 26.012481 19.89605 26.738281 20.535156 C 28.510006 22.095274 28.712119 22.523797 27.908203 23.007812 C 27.501492 23.252655 27.008535 23.38462 25.246094 23.720703 C 24.482663 23.866333 23.703201 24.043407 23.515625 24.113281 C 22.975912 24.314541 22.458926 24.790538 21.564453 25.908203 C 20.679193 27.014388 19.63904 28.04948 19.210938 28.248047 C 18.807185 28.435488 18.473523 28.394464 18.169922 28.123047 C 17.746338 27.743791 17.591485 27.126937 17.494141 25.421875 C 17.4462 24.582005 17.352337 23.728993 17.285156 23.527344 C 17.189381 23.239982 16.870531 22.891231 15.810547 21.912109 C 14.307426 20.523665 14.014804 20.113384 14.216797 19.677734 C 14.41873 19.242227 15.285177 18.92993 17.224609 18.589844 C 19.676131 18.159934 19.610992 18.196431 20.845703 16.533203 C 21.754551 15.308955 22.300389 14.73929 22.884766 14.408203 C 23.170303 14.246451 23.429261 14.165214 23.660156 14.164062 z "
             transform="matrix(0.28222222,0,0,0.28222224,74.155397,112.54177)"
             id="path4718" />
        </g>
      </g>
    </g>
  </g>
</svg>
