<?xml version="1.0" encoding="UTF-8" standalone="no"?>
<!-- Created with Inkscape (http://www.inkscape.org/) -->

<svg
   xmlns:dc="http://purl.org/dc/elements/1.1/"
   xmlns:cc="http://creativecommons.org/ns#"
   xmlns:rdf="http://www.w3.org/1999/02/22-rdf-syntax-ns#"
   xmlns:svg="http://www.w3.org/2000/svg"
   xmlns="http://www.w3.org/2000/svg"
   xmlns:sodipodi="http://sodipodi.sourceforge.net/DTD/sodipodi-0.dtd"
   xmlns:inkscape="http://www.inkscape.org/namespaces/inkscape"
   width="12.0001mm"
   height="12.000169mm"
   viewBox="0 0 12.0001 12.000169"
   version="1.1"
   id="svg4687"
   inkscape:version="0.92.3 (2405546, 2018-03-11)"
   sodipodi:docname="yellow.svg">
  <defs
     id="defs4681" />
  <sodipodi:namedview
     id="base"
     pagecolor="#ffffff"
     bordercolor="#666666"
     borderopacity="1.0"
     inkscape:pageopacity="0.0"
     inkscape:pageshadow="2"
     inkscape:zoom="3.959798"
     inkscape:cx="41.446343"
     inkscape:cy="-45.087227"
     inkscape:document-units="mm"
     inkscape:current-layer="layer1"
     showgrid="false"
     inkscape:window-width="2160"
     inkscape:window-height="1346"
     inkscape:window-x="-11"
     inkscape:window-y="-11"
     inkscape:window-maximized="1" />
  <metadata
     id="metadata4684">
    <rdf:RDF>
      <cc:Work
         rdf:about="">
        <dc:format>image/svg+xml</dc:format>
        <dc:type
           rdf:resource="http://purl.org/dc/dcmitype/StillImage" />
        <dc:title></dc:title>
      </cc:Work>
    </rdf:RDF>
  </metadata>
  <g
     inkscape:label="Livello 1"
     inkscape:groupmode="layer"
     id="layer1"
     transform="translate(-99.288406,-126.50878)">
    <path
       style="fill:#ffff00;stroke:#000000;stroke-width:0.09002057;stroke-opacity:1"
       d="m 106.08486,138.29303 c -0.0814,-0.11177 -0.19022,-0.52899 -0.24176,-0.92723 -0.11964,-0.92414 -0.31844,-1.43513 -0.71873,-1.84699 -0.28935,-0.29769 -0.33313,-0.31594 -0.47019,-0.19593 -0.19547,0.17112 -0.67548,1.44475 -0.76331,2.02531 -0.0896,0.59229 -0.25131,0.73266 -0.78216,0.67885 -0.48472,-0.0491 -2.02273,-0.69731 -2.48176,-1.04592 -0.29946,-0.22742 -0.31641,-0.2688 -0.27849,-0.67997 0.0449,-0.48645 0.42601,-1.27954 1.06166,-2.20915 0.22892,-0.33479 0.46936,-0.75903 0.5343,-0.94274 0.17708,-0.50106 0.0576,-1.31339 -0.37465,-2.54793 -0.2098,-0.59916 -0.43067,-1.34358 -0.49084,-1.65425 -0.136,-0.7022 -0.071,-1.60676 0.14193,-1.97711 0.2505,-0.43559 0.50979,-0.49979 1.32259,-0.32748 1.24974,0.26492 1.44183,0.46729 1.91518,2.01778 0.28398,0.93025 0.58651,1.44747 0.94859,1.62171 0.53978,0.25975 0.9348,-0.19348 1.33209,-1.52837 0.39377,-1.32307 0.60901,-1.47704 2.13334,-1.52596 1.36368,-0.0438 1.37863,-0.0321 1.36957,1.06304 -0.01,1.28472 -0.37992,2.22309 -1.55641,3.95483 -0.59173,0.87102 -0.59193,1.00914 -0.003,2.22904 0.53525,1.10923 0.75969,1.8051 0.75969,2.35542 0,0.41603 -0.035,0.50003 -0.30851,0.74322 -0.31489,0.27982 -1.66151,0.7448 -2.51054,0.86689 -0.34243,0.0491 -0.40843,0.0311 -0.53832,-0.14706 z"
       id="path4600"
       inkscape:connector-curvature="0" />
  </g>
</svg>
