<?xml version="1.0" encoding="UTF-8" standalone="no"?>
<!-- Created with Inkscape (http://www.inkscape.org/) -->

<svg
   xmlns:dc="http://purl.org/dc/elements/1.1/"
   xmlns:cc="http://creativecommons.org/ns#"
   xmlns:rdf="http://www.w3.org/1999/02/22-rdf-syntax-ns#"
   xmlns:svg="http://www.w3.org/2000/svg"
   xmlns="http://www.w3.org/2000/svg"
   xmlns:xlink="http://www.w3.org/1999/xlink"
   xmlns:sodipodi="http://sodipodi.sourceforge.net/DTD/sodipodi-0.dtd"
   xmlns:inkscape="http://www.inkscape.org/namespaces/inkscape"
   width="12mm"
   height="12.000055mm"
   viewBox="0 0 12 12.000056"
   version="1.1"
   id="svg4737"
   inkscape:version="0.91 r13725"
   sodipodi:docname="YOS.svg">
  <defs
     id="defs4731">
    <linearGradient
       inkscape:collect="always"
       id="linearGradient4135">
      <stop
         style="stop-color:#ff9f00;stop-opacity:1;"
         offset="0"
         id="stop4137" />
      <stop
         style="stop-color:#ffff00;stop-opacity:1"
         offset="1"
         id="stop4139" />
    </linearGradient>
    <linearGradient
       inkscape:collect="always"
       xlink:href="#linearGradient4135"
       id="linearGradient4141"
       x1="77.708374"
       y1="118.01543"
       x2="81.891304"
       y2="118.84698"
       gradientUnits="userSpaceOnUse" />
  </defs>
  <sodipodi:namedview
     id="base"
     pagecolor="#ffffff"
     bordercolor="#666666"
     borderopacity="1.0"
     inkscape:pageopacity="0.0"
     inkscape:pageshadow="2"
     inkscape:zoom="11.2"
     inkscape:cx="5.5661771"
     inkscape:cy="21.791849"
     inkscape:document-units="mm"
     inkscape:current-layer="layer1"
     showgrid="false"
     inkscape:window-width="1368"
     inkscape:window-height="849"
     inkscape:window-x="-8"
     inkscape:window-y="-8"
     inkscape:window-maximized="1" />
  <metadata
     id="metadata4734">
    <rdf:RDF>
      <cc:Work
         rdf:about="">
        <dc:format>image/svg+xml</dc:format>
        <dc:type
           rdf:resource="http://purl.org/dc/dcmitype/StillImage" />
        <dc:title></dc:title>
      </cc:Work>
    </rdf:RDF>
  </metadata>
  <g
     inkscape:label="Livello 1"
     inkscape:groupmode="layer"
     id="layer1"
     transform="translate(-74.155397,-112.54177)">
    <path
       style="fill:url(#linearGradient4141);fill-opacity:1;stroke:#000000;stroke-width:0.17456639;stroke-miterlimit:4;stroke-dasharray:none;stroke-opacity:1"
       d="m 77.582564,124.25847 c -0.353554,-0.31585 -0.482283,-0.8303 -0.563443,-2.25184 -0.03994,-0.69964 -0.118403,-1.40948 -0.174349,-1.57745 -0.07979,-0.23954 -0.344461,-0.52962 -1.22743,-1.34523 -1.252104,-1.15659 -1.495919,-1.49841 -1.327659,-1.8613 0.168207,-0.36278 0.889096,-0.62389 2.504647,-0.9072 2.042127,-0.3581 1.987845,-0.32728 3.016359,-1.71273 0.757076,-1.01981 1.2116,-1.49324 1.698385,-1.76903 0.47571,-0.26951 0.865274,-0.27142 1.149126,-0.005 0.402619,0.37704 0.531282,0.89085 0.615204,2.45684 0.04838,0.90279 0.09704,1.24348 0.204837,1.43404 0.07776,0.13746 0.636057,0.68553 1.240653,1.21792 1.475849,1.29959 1.644939,1.65672 0.975274,2.05989 -0.338793,0.20396 -0.749878,0.31405 -2.217997,0.594 -0.63594,0.12127 -1.284096,0.2682 -1.440345,0.32652 -0.449584,0.16782 -0.881147,0.56477 -1.626244,1.4958 -0.737425,0.92144 -1.604466,1.78279 -1.961075,1.94817 -0.336328,0.15601 -0.613041,0.12315 -0.865943,-0.10277 z"
       id="path4718"
       inkscape:connector-curvature="0"
       sodipodi:nodetypes="cssssssscscscscsccc" />
    <path
       style="fill:#fffffd;fill-opacity:1;stroke:#000000;stroke-width:0.17456639;stroke-linejoin:round;stroke-miterlimit:4;stroke-dasharray:none;stroke-opacity:1"
       d="m 79.283534,120.47907 c -0.119784,-0.10701 -0.163398,-0.2813 -0.190895,-0.76293 -0.01353,-0.23703 -0.04011,-0.47753 -0.05907,-0.53444 -0.02703,-0.0811 -0.116704,-0.17944 -0.415855,-0.45577 -0.424214,-0.39185 -0.506819,-0.50766 -0.449812,-0.63061 0.05699,-0.12291 0.301226,-0.21137 0.848577,-0.30735 0.691874,-0.12133 0.673483,-0.11088 1.021946,-0.58028 0.256497,-0.34551 0.41049,-0.50591 0.575414,-0.59935 0.16117,-0.0913 0.293156,-0.0919 0.389325,-0.002 0.136407,0.12773 0.179998,0.30181 0.208431,0.83238 0.0164,0.30586 0.03288,0.42129 0.0694,0.48585 0.02634,0.0466 0.215497,0.23226 0.420334,0.41263 0.50002,0.4403 0.557307,0.5613 0.330424,0.6979 -0.114783,0.0691 -0.254059,0.10639 -0.751459,0.20124 -0.215457,0.0411 -0.435053,0.0909 -0.487991,0.11062 -0.152319,0.0568 -0.298533,0.19135 -0.550973,0.50678 -0.24984,0.31219 -0.543593,0.60401 -0.664413,0.66005 -0.113948,0.0529 -0.2077,0.0418 -0.293383,-0.0348 z"
       id="path4718-0"
       inkscape:connector-curvature="0"
       sodipodi:nodetypes="cssssssscscscscsccc"
       inkscape:transform-center-x="-6.8732897"
       inkscape:transform-center-y="8.2733773" />
  </g>
</svg>
