<?xml version="1.0" encoding="UTF-8" standalone="no"?>
<!-- Created with Inkscape (http://www.inkscape.org/) -->

<svg
   xmlns:dc="http://purl.org/dc/elements/1.1/"
   xmlns:cc="http://creativecommons.org/ns#"
   xmlns:rdf="http://www.w3.org/1999/02/22-rdf-syntax-ns#"
   xmlns:svg="http://www.w3.org/2000/svg"
   xmlns="http://www.w3.org/2000/svg"
   xmlns:sodipodi="http://sodipodi.sourceforge.net/DTD/sodipodi-0.dtd"
   xmlns:inkscape="http://www.inkscape.org/namespaces/inkscape"
   width="11.999995mm"
   height="11.99987mm"
   viewBox="0 0 11.999995 11.99987"
   version="1.1"
   id="svg4710"
   inkscape:version="0.92.3 (2405546, 2018-03-11)"
   sodipodi:docname="red.svg">
  <defs
     id="defs4704" />
  <sodipodi:namedview
     id="base"
     pagecolor="#ffffff"
     bordercolor="#666666"
     borderopacity="1.0"
     inkscape:pageopacity="0.0"
     inkscape:pageshadow="2"
     inkscape:zoom="5.6"
     inkscape:cx="-45.213327"
     inkscape:cy="-12.72373"
     inkscape:document-units="mm"
     inkscape:current-layer="layer1"
     showgrid="false"
     inkscape:window-width="2160"
     inkscape:window-height="1346"
     inkscape:window-x="-11"
     inkscape:window-y="-11"
     inkscape:window-maximized="1" />
  <metadata
     id="metadata4707">
    <rdf:RDF>
      <cc:Work
         rdf:about="">
        <dc:format>image/svg+xml</dc:format>
        <dc:type
           rdf:resource="http://purl.org/dc/dcmitype/StillImage" />
        <dc:title></dc:title>
      </cc:Work>
    </rdf:RDF>
  </metadata>
  <g
     inkscape:label="Livello 1"
     inkscape:groupmode="layer"
     id="layer1"
     transform="translate(-46.570498,-112.9119)">
    <path
       style="fill:#ff0000;stroke:#000000;stroke-width:0.0831862;stroke-opacity:1"
       d="m 51.173264,124.67236 c -0.13886,-0.11749 -0.372172,-0.45844 -0.51848,-0.75748 -0.2221,-0.45398 -0.268695,-0.65087 -0.282267,-1.19275 -0.0188,-0.75028 -0.175933,-1.29306 -0.633465,-2.18808 -0.406211,-0.7946 -0.561969,-0.87937 -1.389068,-0.75584 -0.80002,0.11948 -1.340886,-0.0205 -1.618103,-0.41873 -0.187157,-0.2689 -0.159265,-0.55732 0.112139,-1.15963 0.13243,-0.29391 0.26574,-0.72156 0.296246,-0.95031 0.08058,-0.60431 0.202436,-0.86706 0.465658,-1.00403 0.341489,-0.17771 0.689869,-0.14899 1.171356,0.0965 0.564397,0.28781 1.096436,0.2507 1.535713,-0.10699 0.38378,-0.31257 0.441682,-0.53884 0.334531,-1.30722 -0.192539,-1.38071 0.160137,-1.72106 1.965782,-1.897 0.411668,-0.0401 0.92574,-0.0739 1.142387,-0.0751 l 0.393906,-0.002 v 1.12243 c 0,1.5128 0.09124,1.91557 0.530216,2.34059 0.425849,0.41233 0.986381,0.61948 1.90395,0.70363 0.831209,0.0761 1.347862,0.33423 1.679674,0.83878 0.405756,0.61699 0.336351,1.46761 -0.139975,1.71546 -0.132882,0.0691 -0.642885,0.18169 -1.133341,0.25011 -1.500278,0.20925 -2.550297,0.63503 -3.34975,1.35831 -0.712421,0.64455 -0.999113,1.33976 -0.823341,1.9966 0.111639,0.41716 0.02027,0.70087 -0.351792,1.09249 -0.522342,0.54979 -0.895251,0.63657 -1.291976,0.30065 z m 1.507438,-5.34052 c 0.67211,-0.49615 0.875866,-0.99605 0.563851,-1.38335 -0.137131,-0.17024 -0.230108,-0.19662 -0.684147,-0.19409 -0.650457,0.004 -0.921199,0.16628 -1.11154,0.6678 -0.158934,0.41876 -0.112074,0.7359 0.150595,1.01907 0.255308,0.27522 0.608605,0.23947 1.081241,-0.10937 z"
       id="path4608"
       inkscape:connector-curvature="0" />
  </g>
</svg>
